<?xml version="1.0" encoding="UTF-8" standalone="no"?>
<!DOCTYPE svg PUBLIC "-//W3C//DTD SVG 1.1//EN" "http://www.w3.org/Graphics/SVG/1.1/DTD/svg11.dtd">
<svg width="100%" height="100%" viewBox="0 0 2400 2000" version="1.1" xmlns="http://www.w3.org/2000/svg" xmlns:xlink="http://www.w3.org/1999/xlink" xml:space="preserve" xmlns:serif="http://www.serif.com/" style="fill-rule:evenodd;clip-rule:evenodd;stroke-linejoin:round;stroke-miterlimit:2;">
    <g transform="matrix(0.866025,-0.5,0.5,0.866025,-786.077,759.101)">
        <path d="M1386,122C996.746,119.284 342.34,1095.48 569,1527C814.032,1993.5 1975.11,1851.62 2162,1561C2473.89,1076.01 1714.31,124.291 1386,122Z" style="fill:rgb(243,177,79);"/>
    </g>
    <path d="M1386,122C996.746,119.284 342.34,1095.48 569,1527C814.032,1993.5 1975.11,1851.62 2162,1561C2473.89,1076.01 1714.31,124.291 1386,122Z" style="fill:rgb(74,116,165);"/>
    <clipPath id="_clip1">
        <path d="M475.234,171.756C136.772,364.031 58.136,1536.64 470.192,1797.02C915.646,2078.51 1850.22,1375.09 1866.77,1029.97C1894.38,454.006 760.707,9.583 475.234,171.756Z"/>
    </clipPath>
    <g clip-path="url(#_clip1)">
        <path d="M1386,122C996.746,119.284 342.34,1095.48 569,1527C814.032,1993.5 1975.11,1851.62 2162,1561C2473.89,1076.01 1714.31,124.291 1386,122Z" style="fill:rgb(69,100,125);"/>
    </g>
</svg>
