<svg id="ebu4IaJNl051" xmlns="http://www.w3.org/2000/svg" xmlns:xlink="http://www.w3.org/1999/xlink" viewBox="0 0 512 512" shape-rendering="geometricPrecision" text-rendering="geometricPrecision"><path d="M342.6,150.6c12.5-12.5,12.5-32.8,0-45.3s-32.8-12.5-45.3,0L192,210.7L86.6,105.4c-12.5-12.5-32.8-12.5-45.3,0s-12.5,32.8,0,45.3L146.7,256L41.4,361.4c-12.5,12.5-12.5,32.8,0,45.3s32.8,12.5,45.3,0L192,301.3L297.4,406.6c12.5,12.5,32.8,12.5,45.3,0s12.5-32.8,0-45.3L237.3,256L342.6,150.6Z" transform="matrix(1.384013 0 0 1.384013-9.730499-98.307329)"/></svg>
