<svg id="e53cN2E1Uq41" xmlns="http://www.w3.org/2000/svg" xmlns:xlink="http://www.w3.org/1999/xlink" viewBox="0 0 512 512" shape-rendering="geometricPrecision" text-rendering="geometricPrecision"><path d="M0,96C0,78.3,14.3,64,32,64h384c17.7,0,32,14.3,32,32s-14.3,32-32,32h-384C14.3,128,0,113.7,0,96ZM0,256c0-17.7,14.3-32,32-32h384c17.7,0,32,14.3,32,32s-14.3,32-32,32h-384c-17.7,0-32-14.3-32-32ZM448,416c0,17.7-14.3,32-32,32h-384c-17.7,0-32-14.3-32-32s14.3-32,32-32h384c17.7,0,32,14.3,32,32Z" transform="translate(32 0)"/></svg>
